<?xml version="1.0" standalone="no"?>
<!DOCTYPE svg PUBLIC "-//W3C//DTD SVG 20010904//EN"
 "http://www.w3.org/TR/2001/REC-SVG-20010904/DTD/svg10.dtd">
<svg version="1.0" xmlns="http://www.w3.org/2000/svg"
 width="400.000000pt" height="400.000000pt" viewBox="0 0 400.000000 400.000000"
 preserveAspectRatio="xMidYMid meet">
<metadata>
Created by potrace 1.14, written by Peter Selinger 2001-2017
</metadata>
<g transform="translate(0.000000,400.000000) scale(0.100000,-0.100000)"
fill="#000000" stroke="none">
<path d="M2312 3758 c-27 -45 -67 -149 -88 -230 -19 -71 -26 -78 -50 -53 -17
17 -55 20 -69 6 -6 -5 -47 -15 -92 -21 -67 -9 -93 -8 -140 4 -81 21 -233 36
-355 36 -405 -1 -711 -162 -905 -475 -128 -208 -190 -367 -272 -695 -28 -113
-56 -218 -63 -235 -11 -30 -131 -321 -148 -360 -13 -30 -64 -199 -86 -285 -27
-108 -25 -282 5 -370 35 -102 78 -169 166 -255 109 -108 179 -156 393 -269
149 -78 205 -113 295 -189 174 -143 211 -164 271 -153 74 14 96 88 72 238 -36
224 -148 471 -293 650 -35 42 -63 80 -63 83 0 3 37 48 82 100 l82 93 42 -61
c45 -66 64 -86 134 -133 89 -60 213 -104 292 -104 27 0 43 -6 56 -22 55 -69
107 -117 192 -181 52 -39 133 -104 180 -143 176 -148 347 -241 550 -298 149
-43 245 -56 400 -57 230 0 401 55 619 199 92 61 323 270 364 330 43 62 76 143
87 218 13 81 -2 168 -45 262 -25 54 -94 150 -139 191 l-26 24 38 41 c102 111
153 274 122 388 -16 55 -78 141 -135 186 -72 56 -440 202 -510 202 -18 0 -29
11 -47 47 -21 44 -66 93 -184 204 -27 25 -78 76 -114 115 -36 38 -102 104
-146 146 -79 73 -81 77 -64 94 27 28 77 125 94 185 31 103 13 189 -39 189 -29
0 -115 -38 -162 -72 l-48 -34 -2 60 c-3 62 -24 166 -46 221 -24 63 -90 167
-121 190 -43 33 -60 31 -84 -7z m88 -148 c59 -207 -34 -533 -176 -616 -35 -20
-72 -31 -148 -40 -191 -25 -324 -121 -415 -300 -45 -90 -62 -159 -68 -280 -9
-167 18 -324 81 -473 l32 -76 -31 -27 -31 -26 -55 48 c-94 82 -143 222 -143
403 l1 108 51 102 c101 200 211 344 377 493 87 78 91 84 113 155 25 80 130
299 143 299 4 0 15 -35 24 -77 24 -115 30 -128 50 -128 15 0 23 24 50 145 18
80 49 192 69 249 20 58 36 107 36 110 1 15 31 -37 40 -69z m-710 -194 l95 -12
-50 -26 c-222 -116 -424 -380 -599 -786 -19 -42 -47 -106 -64 -142 -106 -230
-132 -319 -134 -468 -1 -56 -5 -102 -9 -102 -3 0 -26 17 -49 38 l-43 38 41 79
c24 46 38 83 33 88 -16 16 -47 -2 -72 -43 -13 -22 -27 -40 -30 -40 -3 0 -9 28
-12 61 -9 104 -43 107 -54 5 -3 -31 -8 -56 -11 -56 -3 0 -13 7 -22 15 -14 12
-15 26 -8 87 8 82 9 82 -68 99 -64 14 -86 4 -102 -49 -36 -119 14 -298 94
-336 43 -20 47 -26 116 -138 57 -91 121 -151 204 -188 34 -15 64 -35 68 -45 7
-19 -13 -48 -121 -180 -39 -48 -73 -99 -76 -114 -5 -25 6 -52 39 -98 15 -21
15 -22 -13 -28 -56 -12 -155 -66 -205 -113 -83 -78 -125 -153 -131 -239 -1
-22 -2 -22 -27 -7 -139 89 -284 232 -330 330 -35 73 -53 189 -44 279 11 116
99 404 159 525 51 103 96 238 148 445 70 278 100 364 192 551 113 232 233 367
404 457 206 108 428 145 681 113z m340 -42 c0 -3 -18 -42 -40 -87 -21 -45 -49
-113 -61 -151 -20 -68 -25 -73 -173 -220 -162 -161 -241 -267 -330 -444 -67
-134 -126 -339 -126 -440 0 -53 -12 -64 -66 -69 -65 -6 -129 -39 -169 -86 -41
-47 -45 -39 -45 84 0 157 35 272 181 589 210 457 384 679 609 776 87 37 220
66 220 48z m550 -395 c11 -6 9 -8 -10 -9 -56 0 -110 -74 -110 -150 l0 -40 -58
31 c-78 40 -181 57 -268 42 -158 -27 -262 -125 -309 -288 -48 -165 21 -404
161 -564 46 -52 49 -53 93 -49 25 3 77 19 115 38 70 33 79 41 255 225 140 147
234 190 411 190 153 -1 170 -6 170 -50 0 -39 19 -57 34 -31 32 52 27 51 117
37 46 -7 115 -21 153 -32 116 -35 349 -129 386 -157 118 -89 154 -188 115
-320 -15 -51 -84 -162 -131 -213 -13 -14 -24 -30 -24 -35 0 -6 18 -29 39 -52
185 -194 228 -396 121 -565 -55 -87 -248 -273 -365 -352 -317 -215 -683 -243
-1095 -85 -100 39 -254 137 -405 258 -66 53 -150 120 -188 150 -252 202 -303
469 -135 699 53 72 112 128 185 175 41 26 60 44 56 53 -6 16 -32 12 -90 -12
-33 -13 -33 -13 -49 24 -9 21 -30 83 -47 138 -28 93 -30 111 -31 260 0 175 10
229 61 333 38 77 143 181 218 218 58 28 66 29 200 29 77 0 166 -3 198 -8 43
-5 58 -4 61 5 2 7 8 31 12 53 7 32 16 44 44 58 35 17 76 16 110 -4z m128 -118
c133 -67 284 -235 330 -368 13 -38 16 -37 -78 -22 -65 11 -69 14 -76 42 -20
93 -161 247 -226 247 -46 0 -33 -41 68 -210 l44 -75 -41 -7 c-23 -4 -70 -21
-105 -37 l-63 -29 -30 53 c-84 148 -221 230 -267 159 -15 -22 -16 -32 -6 -75
15 -65 81 -177 127 -218 l36 -31 -81 -89 c-44 -48 -93 -97 -108 -108 -33 -24
-147 -83 -161 -83 -6 0 -30 28 -54 63 -130 182 -167 362 -108 518 46 120 142
188 277 197 86 5 140 -7 236 -54 37 -18 70 -29 72 -25 3 4 9 35 15 69 5 34 18
76 28 93 17 29 21 31 65 26 25 -3 73 -19 106 -36z m22 -171 c24 -24 25 -39 3
-47 -16 -6 -63 36 -63 58 0 16 39 10 60 -11z m-356 -111 c34 -27 33 -72 -1
-77 -42 -6 -88 76 -50 91 20 9 23 8 51 -14z m774 -138 c-13 -4 -24 9 -33 39
-6 24 -6 24 18 -5 14 -16 21 -32 15 -34z m-2513 -381 c0 -72 -3 -130 -7 -130
-15 0 -40 113 -39 176 0 72 4 84 29 84 15 0 17 -15 17 -130z m97 -77 c24 -29
28 -50 15 -92 -17 -58 -36 -39 -44 42 -6 70 1 82 29 50z m673 -129 c35 -17 86
-54 123 -91 l64 -63 -21 -32 c-11 -18 -28 -48 -36 -65 -8 -18 -18 -33 -21 -33
-3 0 -22 13 -42 30 -20 16 -64 41 -97 56 -89 41 -195 35 -195 -12 0 -7 11 -12
28 -12 31 1 62 -7 108 -29 l32 -14 -24 -24 c-33 -33 -34 -117 -1 -166 22 -33
71 -68 81 -58 3 3 -6 27 -19 54 -41 81 -33 125 25 125 61 0 72 -21 74 -147 2
-74 8 -123 20 -156 10 -27 15 -52 11 -55 -9 -10 -156 37 -205 66 -25 14 -68
49 -97 77 -176 177 -189 504 -23 574 44 19 149 7 215 -25z m-501 -29 c43 -22
52 -31 68 -77 10 -29 18 -72 18 -96 l0 -43 -50 27 c-66 36 -161 145 -153 175
6 20 7 19 24 -12 22 -45 51 -70 67 -60 10 6 8 18 -8 55 -20 47 -23 56 -17 56
1 0 24 -11 51 -25z m39 -839 c34 -42 157 -300 188 -395 24 -73 33 -121 37
-198 4 -98 4 -103 -15 -103 -24 0 -78 38 -193 135 -110 93 -153 121 -276 183
-56 28 -104 58 -108 67 -23 60 16 155 95 233 60 60 111 89 172 101 52 11 77 5
100 -23z"/>
<path d="M2563 2230 c-34 -20 -70 -67 -60 -76 3 -4 26 4 51 16 34 16 64 22
111 21 52 0 65 3 65 15 0 19 -58 44 -102 44 -18 0 -47 -9 -65 -20z"/>
<path d="M3330 2058 c-178 -18 -441 -136 -674 -302 -181 -129 -265 -182 -353
-223 -68 -31 -83 -35 -161 -34 -47 0 -104 -4 -125 -10 -37 -10 -127 -81 -127
-100 0 -14 32 -10 75 11 22 10 43 16 47 14 4 -2 18 -28 31 -57 43 -94 116
-194 199 -272 100 -94 143 -124 260 -180 304 -146 692 -136 977 26 113 65 193
136 241 215 33 54 35 64 35 144 0 75 -4 93 -31 150 -17 36 -50 87 -74 113 -47
53 -48 47 10 139 58 93 76 198 45 258 -42 81 -196 126 -375 108z m170 -78 c30
-5 72 -17 92 -26 81 -36 69 -136 -37 -292 -14 -20 -25 -42 -25 -48 0 -6 21
-37 46 -70 78 -100 108 -169 108 -244 -1 -81 -26 -135 -97 -204 l-51 -50 -12
70 c-18 109 -63 185 -169 289 -172 169 -370 245 -629 240 l-97 -2 28 24 c15
12 51 37 78 55 28 17 73 46 100 63 240 153 494 227 665 195z m-535 -433 c211
-61 370 -181 450 -341 27 -53 35 -81 35 -122 0 -99 -19 -117 -175 -169 -103
-35 -226 -49 -370 -41 -211 10 -367 67 -536 193 -106 80 -238 245 -264 331 -6
20 -3 22 37 22 66 0 152 26 242 73 131 68 166 75 361 72 111 -2 187 -8 220
-18z"/>
</g>
</svg>
